<svg width="401" height="282" viewBox="0 0 401 282" fill="none" xmlns="http://www.w3.org/2000/svg">
<path d="M76.9987 58C76.3387 59.32 73.0287 70.56 68.3637 92.995C65.9217 104.739 66.3387 117.74 67.1587 129.155C67.9787 140.57 69.9587 150.14 72.2987 158.04C74.6387 165.94 77.2787 171.88 83.0937 180.055C88.9087 188.23 97.8187 198.46 108.679 207.03C119.539 215.6 132.079 222.2 144.149 227.415C156.219 232.63 167.439 236.26 195.659 241.925C223.879 247.59 268.759 255.18 294.849 259.255C320.939 263.33 326.879 263.66 338.024 265.15C349.169 266.64 365.339 269.28 375.154 270.64C384.969 272 387.939 272 390.999 272" stroke="#B11CD3" stroke-width="20" stroke-linecap="round"/>
<path d="M10 81.0001C10.99 79.6801 11.98 78.3601 25.36 66.2951C38.74 54.2301 64.48 31.4601 77.905 20.2251C91.33 8.9901 91.66 9.9801 92.325 11.3151C93.8468 14.3702 95.33 18.6401 96.325 24.2901C97.4564 30.7147 100.98 45.2201 104.64 64.5301C109.66 83.6501 112.32 92.2801 113.33 98.8151C113.66 99.9901 114.32 100.98 115 103" stroke="#B11CD3" stroke-width="20" stroke-linecap="round"/>
</svg>
