<svg width="50" height="50" viewBox="0 0 50 50" fill="none" xmlns="http://www.w3.org/2000/svg">
<path d="M47.5483 35.3114C46.9332 34.2045 43.5887 30.6293 42.8688 29.9436C41.8887 29.01 39.9387 27.6524 40.6003 26.0543C40.7911 25.5613 41.5079 24.5202 42.7491 22.9295C43.402 22.0864 43.919 21.4108 44.3009 20.9017C47.0548 17.2435 47.9899 14.4785 47.7588 13.8847C47.5277 13.2909 46.7736 13.1967 45.672 13.1967L38.5958 13.2442C37.647 13.2442 37.3058 13.5926 37.0921 14.1272C36.3435 16.0517 35.4923 17.8409 34.537 19.4949C33.9481 20.4812 33.4072 21.3359 32.9132 22.0596C32.4199 22.7831 32.006 23.3161 31.672 23.6578C30.5427 24.8124 29.193 25.2215 28.9262 23.1328C28.8787 22.7587 28.8506 22.437 28.8425 22.1666C28.8351 21.8964 28.8385 21.5143 28.8547 21.0213C28.8712 20.528 28.8787 20.1943 28.8787 20.0193C28.8787 19.4149 28.8905 18.7588 28.9141 18.0511C28.9382 17.3433 28.9577 16.7826 28.974 16.3695C28.9902 15.9559 28.9977 15.5184 28.9977 15.0572C28.9977 14.5959 28.9696 14.2342 28.9141 13.9716C28.8593 13.7094 28.775 13.4549 28.6641 13.2082C28.5524 12.9617 28.389 12.771 28.1746 12.6356C27.9598 12.5004 27.6927 12.3931 27.3748 12.3134C26.5311 12.1226 25.4568 12.0194 24.1513 12.0034C21.1908 11.9716 19.2886 12.1627 18.445 12.5762C18.1107 12.7509 17.8083 12.9896 17.5378 13.2916C17.2512 13.6417 17.2113 13.8327 17.4181 13.8641C18.9779 14.0976 19.6256 14.863 19.9253 16.2738C20.3844 18.4379 20.2515 20.7581 19.9133 22.9295C19.7219 24.1584 19.1085 25.4459 17.7286 24.4801C17.4104 24.2573 17.0801 23.9513 16.7378 23.5616C16.3956 23.1718 16.0095 22.6271 15.5796 21.9273C14.1105 19.5344 12.8281 16.9507 11.7837 14.3406C11.5229 13.6558 10.7975 13.1479 10.1602 13.1479L3.61819 13.1954C2.94969 13.1954 2.4961 13.3467 2.25726 13.6489L2.16168 13.7919C2.11393 13.8715 2.08984 13.9987 2.08984 14.1738C2.08984 14.3487 2.13759 14.5635 2.23318 14.8178C3.18819 17.0605 4.22674 19.2234 5.34883 21.3069C6.47092 23.3904 7.446 25.0687 8.27348 26.3403C9.10113 27.6128 9.94474 28.8138 10.8043 29.9427C11.6639 31.072 12.2329 31.7957 12.5113 32.1136C12.79 32.4322 13.009 32.6703 13.1681 32.8293L13.7651 33.4018C14.1471 33.7836 14.7081 34.2408 15.4483 34.7735C16.1886 35.3065 17.0082 35.8313 17.9075 36.3486C18.807 36.8651 19.8534 37.2865 21.0473 37.6125C22.2411 37.9388 23.403 38.0697 24.5332 38.0066H27.279C27.8358 37.9585 28.2577 37.7836 28.5445 37.4816L28.6395 37.362C28.7034 37.2671 28.7632 37.1196 28.8184 36.9211C28.8742 36.7223 28.902 36.5033 28.902 36.2651C28.8857 35.5813 28.9378 34.9651 29.0569 34.4164C29.1759 33.868 29.3115 33.4544 29.4632 33.1759C30.0296 32.1365 30.8377 31.6292 31.9226 32.413C32.44 32.7868 32.9253 33.2483 33.3792 33.7968C33.8329 34.3458 34.378 34.9617 35.0145 35.6454C35.9497 36.6497 37.2736 37.9837 38.7576 37.9837C40.167 37.9837 43.571 38.0432 45.8539 38.0077C47.0641 38.0077 47.7315 37.5292 47.8595 37.0532C48.01 36.4914 47.8462 35.8037 47.5483 35.3114Z" fill="#E8E9EA"/>
</svg>
