<svg width="50" height="50" viewBox="0 0 50 50" fill="none" xmlns="http://www.w3.org/2000/svg">
<path fill-rule="evenodd" clip-rule="evenodd" d="M11.9595 35.4829L12.3067 34.1962L11.6185 33.055C10.2015 30.7052 9.38548 27.9526 9.38548 25C9.38548 16.3706 16.381 9.375 25.0105 9.375C33.6399 9.375 40.6355 16.3706 40.6355 25C40.6355 33.6294 33.6399 40.625 25.0105 40.625C22.8901 40.625 20.8759 40.2044 19.0407 39.4449L17.9596 38.9975L16.8504 39.3702L10.3182 41.5652L11.9595 35.4829ZM9.33528 45.1922L9.33988 45.1906L17.8458 42.3325C20.0532 43.2459 22.473 43.75 25.0105 43.75C35.3658 43.75 43.7605 35.3553 43.7605 25C43.7605 14.6447 35.3658 6.25 25.0105 6.25C14.6551 6.25 6.26048 14.6447 6.26048 25C6.26048 28.5372 7.23993 31.8455 8.94241 34.6688L6.75866 42.7613L6.75739 42.766L6.69457 42.9988L6.28726 44.5082C6.07054 45.3113 6.83622 46.0319 7.62475 45.767L9.10671 45.269L9.33528 45.1922ZM21.9976 20.2416C21.6826 18.3761 20.3596 15.6924 20.0131 15.627C17.0733 15.0716 15.0059 18.0624 15.6346 20.9552C16.2961 23.9989 17.8412 26.9117 20.8337 29.759C23.8262 32.6064 27.1366 34.3099 29.6566 34.3099C32.1766 34.3099 34.8593 32.6869 34.1583 29.5778C33.6858 29.1851 31.2603 27.5662 30.3468 27.4026C29.5503 27.2599 29.0412 27.9631 28.6107 28.5578C28.5474 28.6452 28.4858 28.7302 28.4253 28.8099C27.9528 29.4317 27.5748 29.759 27.1653 29.759C26.7558 29.759 25.1177 29.1045 23.1962 27.2062C21.2747 25.308 20.2401 23.8741 20.6132 23.1479C20.6916 22.9953 20.8413 22.8032 21.0147 22.5804C21.4912 21.9686 22.1471 21.1265 21.9976 20.2416Z" fill="#E8E9EA"/>
</svg>
