<svg width="355" height="284" viewBox="0 0 355 284" fill="none" xmlns="http://www.w3.org/2000/svg">
<path d="M345 274C344.67 248.92 344.34 223.84 339.88 204.65C335.42 185.46 326.84 172.92 318.79 162.665C310.74 152.41 303.48 144.82 294.79 137.115C286.1 129.41 276.2 121.82 260.375 113.125C244.55 104.43 223.1 94.86 201.16 87.785C179.22 80.71 157.44 76.42 135.165 73.55C112.89 70.68 90.78 69.36 68 68" stroke="#B11CD3" stroke-width="20" stroke-linecap="round"/>
<path d="M82.4992 10.5C66.9892 20.73 57.3492 27.485 54.1067 30.23C51.1971 32.6932 48.5092 34.655 41.2342 40.9425C35.0949 46.2484 23.3992 55.15 17.2017 60.0725C11.0042 64.995 10.5092 65.49 10.7492 66.3225C12.24 71.4935 17.6542 73.16 25.2617 78.6975C31.8013 83.4576 43.4292 92.65 50.0417 97.5725C59.6592 104.325 62.6492 106.66 65.4067 108.66C65.9942 109 66.4892 109 67.4992 109.5" stroke="#B11CD3" stroke-width="20" stroke-linecap="round"/>
</svg>
