<svg width="96" height="181" viewBox="0 0 96 181" fill="none" xmlns="http://www.w3.org/2000/svg">
<path d="M42 170L41 171" stroke="#B11CD3" stroke-width="20" stroke-linecap="round"/>
<path d="M39.9987 141C39.9987 138.355 40.3287 133.01 41.7437 129.763C42.7392 127.478 43.3287 125.01 44.9087 121.763C46.2 119.109 47.9887 116.51 49.0787 114.508C50.2509 112.354 53.8087 108.2 56.3262 105.423C57.7404 103.862 59.1587 101.68 62.1537 98.1802C64.1771 95.8156 65.6587 93.6802 67.3262 91.9227C68.9334 90.2288 70.6587 88.0102 73.6537 84.6802C75.9166 82.1642 79.1387 76.2102 81.5762 70.3502C82.9704 66.9983 84.3187 56.4202 85.0812 49.5127C85.6664 44.211 85.1687 36.5202 84.1687 32.6802C83.4893 30.0713 82.5087 27.6802 79.6762 23.8477C77.6387 21.0909 75.0087 19.3402 72.6762 17.4252C69.4103 14.7439 67.3387 14.0102 64.7612 12.8377C61.1307 11.1862 58.6787 11.1702 55.0987 10.5852C50.0698 9.76343 48.0087 11.0002 45.0937 11.4977C41.9823 12.0287 37.3587 13.1602 34.0912 14.3302C32.0286 15.0688 29.3487 16.6602 27.0062 18.4102C24.747 20.098 20.3587 23.6402 17.5062 26.0777C14.8487 28.3486 13.3387 33.1502 12.5012 36.1552C11.5771 39.471 10.6687 42.1502 10.4162 46.5677C10.1448 51.3158 10.6587 57.9902 11.5787 59.9927C12.9937 61.9952 14.9887 63.6602 16.9912 64.5802C17.4937 64.8302 17.9887 65.1602 18.4987 65.5002" stroke="#B11CD3" stroke-width="20" stroke-linecap="round"/>
</svg>
